FFmpeg version SVN-r25716, Copyright (c) 2000-2010 the FFmpeg developers  built on Nov 10 2010 12:23:18 with gcc 4.1.2 20080704 (Red Hat 4.1.2-48)  configuration: --enable-libmp3lame --enable-shared --disable-mmx --arch=x86_64  libavutil     50.33. 0 / 50.33. 0  libavcore      0.12. 1 /  0.12. 1  libavcodec    52.94. 4 / 52.94. 4  libavformat   52.84. 0 / 52.84. 0  libavdevice   52. 2. 2 / 52. 2. 2  libavfilter    1.59. 0 /  1.59. 0  libswscale     0.12. 0 /  0.12. 0Seems stream 0 codec frame rate differs from container frame rate: 5994.00 (5994/1) -> 29.97 (2997/100)Input #0, mov,mp4,m4a,3gp,3g2,mj2, from '/RAID10/data/converted_video_files/12429.mov':  Metadata:    major_brand     : qt      minor_version   : 537199360    compatible_brands: qt    Duration: 00:00:26.22, start: 0.000000, bitrate: 1314 kb/s    Stream #0.0(eng): Video: h264, yuv420p, 960x540, 1310 kb/s, 29.97 fps, 29.97 tbr, 2997 tbn, 5994 tbc[buffer @ 0x408acf0] w:960 h:540 pixfmt:yuv420pOutput #0, flv, to '/RAID10/data/converted_video_files/12429.flv':  Metadata:    encoder         : Lavf52.84.0    Stream #0.0(eng): Video: flv, yuv420p, 960x540, q=2-31, 600 kb/s, 1k tbn, 24 tbcStream mapping:  Stream #0.0 -> #0.0Press [q] to stop encodingframe=   60 fps=  0 q=2.0 size=     376kB time=2.50 bitrate=1233.5kbits/s dup=0 drop=14    frame=   98 fps= 94 q=10.0 size=     660kB time=4.08 bitrate=1324.4kbits/s dup=0 drop=24    frame=  120 fps= 69 q=31.0 size=     749kB time=5.00 bitrate=1227.2kbits/s dup=0 drop=29    frame=  141 fps= 69 q=13.5 size=     800kB time=5.88 bitrate=1115.2kbits/s dup=0 drop=35    frame=  177 fps= 69 q=12.0 size=     904kB time=7.38 bitrate=1004.4kbits/s dup=0 drop=44    frame=  209 fps= 68 q=13.3 size=     992kB time=8.71 bitrate= 932.9kbits/s dup=0 drop=51    frame=  245 fps= 68 q=7.9 size=    1135kB time=10.21 bitrate= 910.9kbits/s dup=0 drop=61    frame=  278 fps= 68 q=31.0 size=    1245kB time=11.58 bitrate= 880.4kbits/s dup=0 drop=69    frame=  317 fps= 69 q=10.4 size=    1336kB time=13.21 bitrate= 828.4kbits/s dup=0 drop=78    frame=  351 fps= 69 q=17.0 size=    1459kB time=14.62 bitrate= 817.2kbits/s dup=0 drop=87    frame=  383 fps= 68 q=17.2 size=    1524kB time=15.96 bitrate= 782.6kbits/s dup=0 drop=95    frame=  423 fps= 69 q=10.2 size=    1652kB time=17.62 bitrate= 768.1kbits/s dup=0 drop=105    frame=  454 fps= 69 q=14.5 size=    1722kB time=18.92 bitrate= 745.7kbits/s dup=0 drop=112    frame=  498 fps= 70 q=7.6 size=    1903kB time=20.75 bitrate= 751.5kbits/s dup=0 drop=123    frame=  533 fps= 70 q=28.7 size=    2005kB time=22.21 bitrate= 739.5kbits/s dup=0 drop=132    frame=  576 fps= 71 q=8.3 size=    2104kB time=24.00 bitrate= 718.1kbits/s dup=0 drop=143    frame=  611 fps= 70 q=28.5 size=    2233kB time=25.46 bitrate= 718.4kbits/s dup=0 drop=151    frame=  630 fps= 70 q=18.6 Lsize=    2286kB time=26.25 bitrate= 713.4kbits/s dup=0 drop=156    video:2276kB audio:0kB global headers:0kB muxing overhead 0.441525%